<mxfile host="app.diagrams.net" modified="2021-10-21T17:25:12.399Z" agent="5.0 (Macintosh; Intel Mac OS X 10_15_7) AppleWebKit/537.36 (KHTML, like Gecko) Chrome/94.0.4606.81 Safari/537.36" etag="4rD2akqsHTTGt2b0ob1Y" version="15.5.4" type="github">
  <diagram id="8wXbEfw8VlFpU_Lr8M7E" name="Page-1">
    <mxGraphModel dx="1298" dy="716" grid="1" gridSize="10" guides="1" tooltips="1" connect="1" arrows="1" fold="1" page="1" pageScale="1" pageWidth="827" pageHeight="1169" math="0" shadow="0">
      <root>
        <mxCell id="0" />
        <mxCell id="1" parent="0" />
        <mxCell id="nv0iDH9mKceCa3a_2c9S-1" value="" style="rounded=0;whiteSpace=wrap;html=1;" vertex="1" parent="1">
          <mxGeometry x="35" y="210" width="250" height="140" as="geometry" />
        </mxCell>
        <mxCell id="nv0iDH9mKceCa3a_2c9S-2" value="HUB回调" style="shape=document;whiteSpace=wrap;html=1;boundedLbl=1;" vertex="1" parent="1">
          <mxGeometry x="90" y="50" width="120" height="80" as="geometry" />
        </mxCell>
        <mxCell id="nv0iDH9mKceCa3a_2c9S-3" value="" style="endArrow=classic;html=1;rounded=0;entryX=0.5;entryY=0;entryDx=0;entryDy=0;" edge="1" parent="1" source="nv0iDH9mKceCa3a_2c9S-2" target="nv0iDH9mKceCa3a_2c9S-7">
          <mxGeometry width="50" height="50" relative="1" as="geometry">
            <mxPoint x="150" y="190" as="sourcePoint" />
            <mxPoint x="200" y="140" as="targetPoint" />
          </mxGeometry>
        </mxCell>
        <mxCell id="nv0iDH9mKceCa3a_2c9S-4" value="发货状态更新" style="edgeLabel;html=1;align=center;verticalAlign=middle;resizable=0;points=[];" vertex="1" connectable="0" parent="nv0iDH9mKceCa3a_2c9S-3">
          <mxGeometry x="-0.1" y="-1" relative="1" as="geometry">
            <mxPoint as="offset" />
          </mxGeometry>
        </mxCell>
        <mxCell id="nv0iDH9mKceCa3a_2c9S-5" value="&lt;b&gt;&lt;font style=&quot;font-size: 16px&quot;&gt;DP&lt;/font&gt;&lt;/b&gt;" style="text;html=1;strokeColor=none;fillColor=none;align=center;verticalAlign=middle;whiteSpace=wrap;rounded=0;" vertex="1" parent="1">
          <mxGeometry x="40" y="220" width="60" height="30" as="geometry" />
        </mxCell>
        <mxCell id="nv0iDH9mKceCa3a_2c9S-6" value="" style="shape=dataStorage;whiteSpace=wrap;html=1;fixedSize=1;fontSize=16;rotation=-180;" vertex="1" parent="1">
          <mxGeometry x="240" y="250" width="100" height="60" as="geometry" />
        </mxCell>
        <mxCell id="nv0iDH9mKceCa3a_2c9S-7" value="Order Server" style="rounded=1;whiteSpace=wrap;html=1;fontSize=16;fillColor=#dae8fc;strokeColor=#6c8ebf;" vertex="1" parent="1">
          <mxGeometry x="90" y="250" width="120" height="60" as="geometry" />
        </mxCell>
        <mxCell id="nv0iDH9mKceCa3a_2c9S-8" value="OrderBus" style="text;html=1;strokeColor=none;fillColor=none;align=center;verticalAlign=middle;whiteSpace=wrap;rounded=0;fontSize=16;" vertex="1" parent="1">
          <mxGeometry x="270" y="265" width="60" height="30" as="geometry" />
        </mxCell>
        <mxCell id="nv0iDH9mKceCa3a_2c9S-10" value="" style="endArrow=classic;html=1;rounded=0;fontSize=16;exitX=1;exitY=0.5;exitDx=0;exitDy=0;" edge="1" parent="1" source="nv0iDH9mKceCa3a_2c9S-7">
          <mxGeometry width="50" height="50" relative="1" as="geometry">
            <mxPoint x="200" y="420" as="sourcePoint" />
            <mxPoint x="260" y="280" as="targetPoint" />
          </mxGeometry>
        </mxCell>
        <mxCell id="nv0iDH9mKceCa3a_2c9S-11" value="" style="rounded=0;whiteSpace=wrap;html=1;" vertex="1" parent="1">
          <mxGeometry x="370" y="210" width="330" height="140" as="geometry" />
        </mxCell>
        <mxCell id="nv0iDH9mKceCa3a_2c9S-12" value="&lt;b&gt;&lt;font style=&quot;font-size: 16px&quot;&gt;Invest&lt;/font&gt;&lt;/b&gt;" style="text;html=1;strokeColor=none;fillColor=none;align=center;verticalAlign=middle;whiteSpace=wrap;rounded=0;" vertex="1" parent="1">
          <mxGeometry x="375" y="220" width="60" height="30" as="geometry" />
        </mxCell>
        <mxCell id="nv0iDH9mKceCa3a_2c9S-13" value="Order Server" style="rounded=1;whiteSpace=wrap;html=1;fontSize=16;fillColor=#fff2cc;strokeColor=#d6b656;" vertex="1" parent="1">
          <mxGeometry x="386" y="250" width="120" height="60" as="geometry" />
        </mxCell>
        <mxCell id="nv0iDH9mKceCa3a_2c9S-14" value="" style="endArrow=classic;html=1;rounded=0;fontSize=16;exitX=1;exitY=0.5;exitDx=0;exitDy=0;" edge="1" parent="1">
          <mxGeometry width="50" height="50" relative="1" as="geometry">
            <mxPoint x="340" y="279.5" as="sourcePoint" />
            <mxPoint x="390" y="279.5" as="targetPoint" />
          </mxGeometry>
        </mxCell>
        <mxCell id="nv0iDH9mKceCa3a_2c9S-15" value="Investment Core" style="rounded=1;whiteSpace=wrap;html=1;fontSize=16;fillColor=#fff2cc;strokeColor=#d6b656;" vertex="1" parent="1">
          <mxGeometry x="550" y="250" width="130" height="60" as="geometry" />
        </mxCell>
        <mxCell id="nv0iDH9mKceCa3a_2c9S-17" value="" style="endArrow=classic;html=1;rounded=0;fontSize=16;" edge="1" parent="1" target="nv0iDH9mKceCa3a_2c9S-15">
          <mxGeometry width="50" height="50" relative="1" as="geometry">
            <mxPoint x="510" y="280" as="sourcePoint" />
            <mxPoint x="400" y="289.5" as="targetPoint" />
          </mxGeometry>
        </mxCell>
      </root>
    </mxGraphModel>
  </diagram>
</mxfile>
